<?xml version="1.0" encoding="UTF-8" standalone="no"?>
<svg
   version="1.1"
   id="Layer_1"
   x="0px"
   y="0px"
   width="1024"
   viewBox="0 0 1024 1024"
   enable-background="new 0 0 984 520"
   xml:space="preserve"
   sodipodi:docname="finder-lost-logo-1024.svg"
   inkscape:version="1.2.2 (b0a84865, 2022-12-01)"
   inkscape:export-filename="finder-lost-logo.pdf"
   inkscape:export-xdpi="96"
   inkscape:export-ydpi="96"
   height="1024"
   xmlns:inkscape="http://www.inkscape.org/namespaces/inkscape"
   xmlns:sodipodi="http://sodipodi.sourceforge.net/DTD/sodipodi-0.dtd"
   xmlns="http://www.w3.org/2000/svg"
   xmlns:svg="http://www.w3.org/2000/svg"><defs
   id="defs150" /><sodipodi:namedview
   id="namedview148"
   pagecolor="#ffffff"
   bordercolor="#000000"
   borderopacity="0.25"
   inkscape:showpageshadow="2"
   inkscape:pageopacity="0.0"
   inkscape:pagecheckerboard="0"
   inkscape:deskcolor="#d1d1d1"
   showgrid="false"
   inkscape:zoom="0.51581082"
   inkscape:cx="563.19098"
   inkscape:cy="539.92663"
   inkscape:window-width="1440"
   inkscape:window-height="847"
   inkscape:window-x="246"
   inkscape:window-y="1105"
   inkscape:window-maximized="0"
   inkscape:current-layer="Layer_1" />


<rect
   style="display:none;opacity:0;fill:#ffffff;fill-opacity:1;stroke-width:0.999991"
   id="rect836"
   width="1024.0389"
   height="1024.056"
   x="0"
   y="0"
   sodipodi:insensitive="true" /><path
   fill="#2ea9c0"
   opacity="1"
   stroke="none"
   d="m 888.06288,581.76386 c -0.85641,8.54662 -1.71357,17.09349 -2.87946,28.72693 13.25384,-9.22264 23.70576,-16.4946 34.15686,-23.76709 1.81227,1.70384 3.62454,3.40811 5.43706,5.11169 -3.96334,5.67628 -6.82921,12.79528 -12.07479,16.78658 -26.22366,19.95254 -43.45973,45.45182 -58.9109,74.8635 -67.81292,129.08239 -175.23233,200.26784 -323.45686,208.78096 3.37729,-7.98646 8.38456,-14.18406 13.93719,-19.84631 12.74315,-12.99397 25.75247,-25.72749 39.98152,-39.45565 29.86496,-11.95593 59.75551,-20.44878 86.67402,-34.59552 68.27436,-35.88269 113.7671,-93.4251 147.14744,-163.03529 24.32405,-18.17519 47.15612,-35.87246 69.98792,-53.5698 z"
   id="path97"
   style="display:inline;stroke-width:4.52378" />
<path
   fill="#f465ad"
   opacity="1"
   stroke="none"
   d="m 148.49607,374.54323 c 4.49691,-12.48008 8.99342,-24.9606 13.66227,-37.91901 -7.7205,0 -14.05936,0 -20.39844,7e-5 3.14057,-5.3486 5.32839,-11.64932 9.57235,-15.89401 32.85254,-32.85768 65.19459,-66.30802 99.41615,-97.69763 75.00534,-68.79707 164.05808,-101.34784 267.04894,-97.22779 -27.36369,21.4738 -55.92147,41.30251 -86.09375,61.7677 -80.54557,21.93255 -141.3948,69.39368 -193.44841,131.95474 -31.04962,18.286 -60.404,36.65096 -89.75911,55.01593 z"
   id="path99"
   style="stroke-width:4.52378" />
<path
   fill="#fbcc1b"
   opacity="1"
   stroke="none"
   d="m 147.60591,375.86646 c 30.24527,-19.6882 59.59965,-38.05316 90.28051,-54.72446 -15.70649,45.59626 -32.73935,89.49877 -51.14152,134.04214 -21.71032,15.77124 -42.05168,30.90109 -62.39221,46.03133 7.45397,-41.34198 14.90864,-82.68356 23.25322,-125.34901 z"
   id="path101"
   style="stroke-width:4.52378" />
<path
   fill="#2472b2"
   opacity="1"
   stroke="none"
   d="m 255.55196,798.51756 c -21.03753,-23.78582 -42.07488,-47.57215 -62.56163,-74.22114 14.65036,-13.63573 28.74937,-24.40796 43.97618,-34.20298 28.73675,30.58485 56.34611,60.19264 82.86787,90.92628 -13.11518,13.13801 -25.14307,25.15011 -37.17092,37.16212 -1.80494,-0.76618 -3.61034,-1.53298 -6.97398,-4.50403 -7.75105,-6.52286 -13.94434,-10.84114 -20.13752,-15.16025 z"
   id="path103"
   style="stroke-width:4.52378" />
<path
   fill="#ef66af"
   opacity="1"
   stroke="none"
   d="m 840.29114,314.64814 c 10.19467,17.86339 20.38938,35.72738 30.85435,54.06479 12.30493,-8.34056 24.20454,-16.4069 36.10415,-24.47318 2.19058,2.70368 4.38111,5.40676 6.57151,8.11026 -12.88512,12.33384 -25.77074,24.66723 -40.35643,38.62883 1.91966,5.82101 4.37573,13.26685 5.57352,22.89938 -14.99044,15.14051 -28.72233,28.09377 -42.98353,39.36184 -12.4628,-36.3673 -24.39557,-71.04935 -34.99444,-106.51446 13.96646,-11.21375 26.5986,-21.64575 39.23087,-32.07746 z"
   id="path105"
   style="stroke-width:4.52378" />
<path
   fill="#ef66af"
   opacity="1"
   stroke="none"
   d="m 151.46326,647.33594 c -5.45858,-0.71809 -10.98296,-2.3154 -16.35723,-1.91168 -5.5869,0.41892 -11.02868,2.77321 -16.98345,2.51036 28.22993,-26.50015 15.43196,-55.71896 8.93657,-84.30293 -0.98846,-4.35075 -0.86849,-8.95309 0.43527,-15.70042 19.82173,-13.65482 37.94911,-25.04903 56.39122,-34.26648 5.29566,34.12892 10.27666,66.08081 13.90901,98.96483 -16.34226,12.18975 -31.33601,23.44843 -46.32917,34.70632 z"
   id="path107"
   style="stroke-width:4.52378" />
<path
   fill="#ef66af"
   opacity="1"
   stroke="none"
   d="m 283.34112,819.5288 c 11.35019,-13.35897 23.37808,-25.37107 37.99655,-38.11329 36.17712,15.67737 69.76293,32.08439 102.4412,49.74091 -14.72425,15.19533 -28.54087,29.14188 -42.35725,43.08854 -32.46738,-17.79001 -64.93561,-35.57991 -98.0805,-54.71616 z"
   id="path109"
   style="stroke-width:4.52378" />
<path
   fill="#f9cb1f"
   opacity="1"
   stroke="none"
   d="m 433.31826,186.93622 c 28.55761,-19.82885 57.11539,-39.65756 86.68955,-60.80014 8.39604,-1.70715 16.18535,-3.82726 23.08377,-2.1919 27.21239,6.45094 51.54161,4.52145 71.7303,-17.74692 2.96115,-3.26666 10.23723,-2.62159 15.51726,-3.78629 -2.28515,5.3189 -3.61049,11.40822 -7.10332,15.75678 -4.13808,5.15239 -10.14438,8.80526 -17.70161,14.64341 -22.39304,16.2173 -42.42453,30.89924 -64.29733,45.75926 -37.20028,2.90687 -72.5598,5.63624 -107.91862,8.3658 z"
   id="path111"
   style="stroke-width:4.52378" />
<path
   fill="#2ea9c0"
   opacity="1"
   stroke="none"
   d="m 151.73976,648.89516 c 14.71655,-12.81711 29.71068,-24.07579 47.00358,-34.92841 13.89755,25.32024 25.49661,50.23519 37.0955,75.1491 -14.09914,10.77261 -28.19815,21.54484 -43.30673,33.73163 -5.49346,-3.43851 -9.97701,-8.29201 -15.4902,-14.25974 -13.13221,9.95887 -25.68844,19.48104 -38.24543,29.00325 -1.85474,-1.60099 -3.70859,-3.20133 -5.5631,-4.802 3.72531,-5.73458 6.14779,-13.53416 11.39988,-16.84845 23.623,-14.90348 26.57032,-32.68799 10.69579,-54.92128 -2.03845,-2.85478 -2.2531,-7.0114 -3.58929,-12.1241 z"
   id="path113"
   style="stroke-width:4.52378" />
<path
   fill="#2472b2"
   opacity="1"
   stroke="none"
   d="m 543.07822,178.39295 c 20.03146,-14.68255 40.06295,-29.36449 61.43917,-44.17119 28.78228,11.23252 56.22086,22.58936 83.7255,36.15101 -15.06069,12.61125 -30.18658,23.01874 -46.84331,33.03492 -33.79381,-8.59895 -66.05757,-16.80684 -98.32136,-25.01474 z"
   id="path115"
   style="stroke-width:4.52378" />
<path
   fill="#2472b2"
   opacity="1"
   stroke="none"
   d="m 839.89849,313.13967 c -12.23962,11.94018 -24.87176,22.37218 -39.94663,32.43906 -19.92994,-23.9884 -37.41751,-47.61178 -54.18367,-72.60005 13.73486,-11.12947 26.74883,-20.89406 39.76224,-30.65901 17.99145,23.10367 35.98303,46.20752 54.36806,70.82 z"
   id="path117"
   style="stroke-width:4.52378" />
<path
   fill="#f9cb1f"
   opacity="1"
   stroke="none"
   d="m 836.58393,454.92533 c 13.73198,-12.95334 27.46387,-25.9066 42.51704,-39.42458 5.04439,19.73535 8.76762,40.03552 13.03406,63.2964 10.56448,-5.58391 20.19058,-10.67135 29.81598,-15.75892 1.89219,2.14899 3.78478,4.29865 5.67723,6.44831 -10.23387,9.64183 -20.46818,19.28384 -33.44006,29.84728 -19.80862,14.20724 -36.87866,27.49296 -54.15026,38.3855 -1.28596,-29.19268 -2.36974,-55.99312 -3.45399,-82.79399 z"
   id="path119"
   style="stroke-width:4.52378" />
<path
   fill="#2472b2"
   opacity="1"
   stroke="none"
   d="m 840.23891,540.11195 c 17.07061,-13.28517 34.14065,-26.57089 52.81835,-39.75839 -0.17689,25.95723 -1.96419,51.81584 -4.37174,79.54193 -23.45444,19.56571 -46.28651,37.26298 -70.36758,53.68142 6.47433,-32.00755 14.19758,-62.73621 21.92097,-93.46496 z"
   id="path121"
   style="stroke-width:4.52378" />
<path
   fill="#2472b2"
   opacity="1"
   stroke="none"
   d="m 582.92589,833.85333 c -12.90144,12.8393 -25.91076,25.57282 -38.65391,38.56679 -5.55263,5.66225 -10.5599,11.85985 -15.92115,19.34607 -26.50971,0.30088 -52.91271,-0.92887 -80.01262,-4.17216 15.62377,-16.87371 31.94455,-31.73347 49.96727,-46.77856 29.34233,-2.44397 56.98116,-4.7029 84.62041,-6.96214 z"
   id="path123"
   style="stroke-width:4.52378" />
<path
   fill="#f9cb1f"
   opacity="1"
   stroke="none"
   d="m 496.6029,841 c -16.32014,14.86056 -32.64092,29.72032 -50.33634,45.74235 -4.36003,0.8739 -7.63609,1.2888 -10.28366,0.18758 -23.13597,-9.60483 -43.20637,-7.8584 -59.56097,13.56538 -3.33483,4.36873 -10.18724,6.05261 -15.41843,8.97435 -1.88583,-2.16339 -3.77096,-4.32627 -5.65702,-6.48929 8.04463,-8.5683 16.08863,-17.13661 25.10406,-27.22147 14.78746,-15.46223 28.60408,-29.40878 45.17817,-44.50524 25.49683,2.48097 48.23579,6.11237 70.97419,9.74471 z"
   id="path125"
   style="stroke-width:4.52378" />
<path
   fill="#ef66af"
   opacity="1"
   stroke="none"
   d="m 642.92924,203.79805 c 15.12707,-10.40654 30.25296,-20.81403 46.32854,-32.31102 24.71181,18.18017 42.09131,4.95199 60.17135,-11.42507 10.59443,-9.59693 23.70911,-16.41188 35.68991,-24.478 1.90086,2.6888 3.80284,5.37756 5.70371,8.06649 -18.56879,16.36996 -37.13802,32.73978 -57.42459,51.39854 -15.49766,12.94625 -29.27759,23.60339 -44.60238,33.90744 -16.3192,-8.62094 -31.09235,-16.88945 -45.86654,-25.15838 z"
   id="path127"
   style="stroke-width:4.52378" />
<path
   fill="#2ea9c0"
   opacity="1"
   stroke="none"
   d="m 690.34046,229.30921 c 13.78011,-10.65683 27.56004,-21.31397 42.53598,-32.78362 18.01681,13.79953 34.83732,28.41215 52.15545,44.40906 -12.51487,11.14997 -25.52884,20.91456 -40.64461,31.43688 -19.4167,-13.84952 -36.73184,-28.45596 -54.04682,-43.06232 z"
   id="path129"
   style="stroke-width:4.52378" />
<path
   fill="#2472b2"
   opacity="1"
   stroke="none"
   d="m 183.56865,511.48824 c -18.1271,11.394 -36.25471,22.78821 -55.89895,34.60966 -2.14621,-13.35349 -2.77502,-27.1343 -3.36076,-42.89918 20.38428,-17.11349 40.72564,-32.24334 62.45416,-46.07997 -0.13853,18.98539 -1.66695,36.6774 -3.19445,54.36949 z"
   id="path131"
   style="stroke-width:4.52378" />
<path
   fill="#409edd"
   opacity="1"
   stroke="none"
   d="m 215.82763,841.39139 c 8.02159,-7.97117 16.04386,-15.94235 25.52518,-22.30626 1.64478,5.7149 1.83067,9.8224 2.01586,13.92981 -7.49252,7.20946 -14.98576,14.41923 -24.30827,19.77075 -2.29788,-5.03705 -2.76575,-8.21595 -3.23277,-11.3943 z"
   id="path133"
   style="stroke-width:4.52378" />
<path
   fill="#2472b2"
   opacity="1"
   stroke="none"
   d="m 214.32599,842.09359 c 1.96866,2.47615 2.43653,5.65505 3.33399,11.21923 -7.78898,9.62287 -16.00838,16.85872 -24.22785,24.09493 -2.34169,-2.50505 -4.68353,-5.01051 -7.02465,-7.51567 8.8055,-9.03201 17.6109,-18.06378 27.91851,-27.79849 z"
   id="path135"
   style="stroke-width:4.52378" />
<path
   fill="#409edd"
   opacity="1"
   stroke="none"
   d="m 255.07176,800.03048 c 6.67338,2.80619 12.86667,7.12447 19.54239,12.64204 -4.49712,3.33563 -9.47678,5.47254 -16.28137,6.61619 -4.71079,-3.04773 -7.59739,-5.10181 -10.48362,-7.15631 2.247,-3.52984 4.4941,-7.05958 7.2226,-12.10192 z"
   id="path137"
   style="stroke-width:4.52378" />
<path
   fill="#2472b2"
   opacity="1"
   stroke="none"
   d="m 246.82191,812.66549 c 3.91348,1.52141 6.80008,3.57549 9.9165,7.08675 -3.39597,4.92672 -7.02206,8.39644 -12.00895,12.56425 -1.54598,-3.40896 -1.73187,-7.51646 -1.97172,-13.6712 0.97615,-3.18047 2.00654,-4.31375 4.06417,-5.9798 z"
   id="path139"
   style="stroke-width:4.52378" />

<path
   fill="#409edd"
   opacity="1"
   stroke="none"
   d="M 703.57028,607.42035 C 647.69797,713.84895 524.501,751.3448 424.53089,705.63458 316.71191,656.33524 269.19358,535.03302 312.69984,426.86158 355.32542,320.87913 476.83785,268.22231 588.32182,307.42207 c 102.99918,36.21619 162.13249,154.08555 130.4894,260.75022 -3.82154,12.88209 -9.58302,25.18869 -15.24094,39.24806 M 353.50607,391.49247 c -65.73587,93.40912 -46.41256,212.51064 45.43124,280.0221 85.19052,62.62122 208.224,41.21544 274.80012,-47.81023 63.39421,-84.77155 43.93743,-207.43521 -46.10872,-274.84594 -82.04917,-61.42371 -204.90075,-48.02267 -274.12264,42.63407 z"
   id="path143"
   style="display:inline;stroke-width:4.52378" />

<path
   style="fill:none;stroke-width:1"
   d="m 481.7331,837.8264 c -5.51986,-0.94794 -20.74208,-3.14175 -33.82716,-4.87512 -23.59918,-3.12621 -24.09287,-3.30188 -61.22025,-21.78516 -20.58605,-10.24845 -43.59943,-21.27135 -51.14084,-24.4953 -12.95276,-5.53733 -15.64031,-7.97251 -48.55885,-43.99896 -19.16596,-20.97546 -38.2867,-41.83882 -42.49054,-46.36303 -4.7373,-5.09833 -14.9781,-23.03255 -26.93484,-47.1697 -18.69067,-37.73099 -19.36437,-39.56902 -21.63178,-59.01662 -1.28716,-11.04004 -4.34823,-33.16966 -6.80239,-49.17692 -3.89699,-25.41829 -4.24843,-32.66301 -2.77498,-57.20527 l 1.68711,-28.1011 13.11391,-33.11915 c 16.2017,-40.91736 36.67705,-96.54639 36.69206,-99.68785 0.0174,-3.64916 48.95563,-53.54441 66.0004,-67.29115 34.74939,-28.02564 70.26725,-47.82293 108.93669,-60.7202 19.36334,-6.45818 24.46596,-7.2193 74.93774,-11.17792 l 54.15956,-4.24786 49.95292,12.47059 c 48.82202,12.18827 50.52406,12.78627 75.18264,26.41469 13.87636,7.66925 30.82533,18.69117 37.6644,24.49316 6.83904,5.80198 18.446,14.97245 25.79323,20.37881 10.0218,7.3744 17.55357,15.62828 30.1527,33.04359 9.23675,12.76761 21.75246,29.39713 27.8127,36.95448 10.65881,13.29196 11.61396,15.54897 29.25078,69.11835 l 18.23215,55.37769 1.61525,41.14803 c 1.54961,39.47596 1.42177,41.9229 -3.14624,60.21664 -2.61882,10.48773 -7.73766,32.215 -11.37516,48.28282 -6.79234,30.00346 -9.97499,37.85961 -27.04649,66.76225 -27.28259,46.19042 -62.76534,83.92525 -103.98811,110.58818 -18.95646,12.26107 -36.47964,20.46215 -75.76279,35.458 l -32.11554,12.25973 -41.14803,3.73955 c -45.5572,4.14028 -46.92946,4.17893 -61.22025,1.72475 z m 83.71279,-118.92267 c 77.68998,-20.17988 135.657,-79.0196 156.48411,-158.83998 5.31765,-20.38004 7.14031,-60.515 3.78901,-83.43461 -8.46413,-57.88658 -43.59564,-114.63427 -90.82294,-146.70572 -17.48535,-11.87408 -42.9609,-23.29415 -65.43574,-29.33324 -17.44406,-4.68731 -23.26064,-5.24973 -55.61169,-5.37722 -31.86897,-0.12559 -38.26049,0.41845 -54.19497,4.61298 -39.45706,10.38652 -74.28132,30.00585 -101.813,57.35952 -26.1397,25.9707 -45.11308,59.30394 -55.23379,97.03705 -4.62669,17.24972 -5.23832,23.39111 -5.33856,53.60447 -0.0948,28.56846 0.5903,36.89991 4.20881,51.18414 9.63609,38.03889 27.29283,70.15521 53.99712,98.21685 32.94647,34.62109 73.16161,56.2663 121.71219,65.50978 22.51187,4.28602 63.92418,2.48705 88.25945,-3.83402 z"
   id="path1741" /><path
   style="fill:none;stroke-width:1"
   d="m 471.69699,702.6602 c -36.99411,-8.49593 -64.91901,-23.53078 -92.67564,-49.89687 -27.16087,-25.80016 -45.45346,-55.46535 -55.95431,-90.74138 -7.58311,-25.47437 -8.96671,-62.34069 -3.35222,-89.32134 11.20943,-53.86742 41.13491,-98.55246 85.26417,-127.31736 114.91325,-74.90424 261.59779,-16.56284 299.03504,118.93634 3.46031,12.52416 4.2761,21.22654 4.36077,46.51822 0.112,33.48786 -2.41847,46.92713 -14.10344,74.90076 -11.83149,28.32437 -40.38313,63.02081 -68.18545,82.86013 -16.27728,11.61522 -46.55372,25.86447 -66.36387,31.23332 -20.19988,5.4745 -69.59208,7.06143 -88.02505,2.82818 z"
   id="path1743" /></svg>
